<?xml version="1.0" encoding="UTF-8"?>
<!DOCTYPE svg PUBLIC "-//W3C//DTD SVG 1.1//EN" "http://www.w3.org/Graphics/SVG/1.1/DTD/svg11.dtd">
<svg xmlns="http://www.w3.org/2000/svg" version="1.1" width="500px" height="500px" style="shape-rendering:geometricPrecision; text-rendering:geometricPrecision; image-rendering:optimizeQuality; fill-rule:evenodd; clip-rule:evenodd" xmlns:xlink="http://www.w3.org/1999/xlink">
<g><path style="opacity:1" fill="#fefefe" d="M -0.5,-0.5 C 75.8333,-0.5 152.167,-0.5 228.5,-0.5C 228.5,-0.166667 228.5,0.166667 228.5,0.5C 226.585,0.215521 224.919,0.548855 223.5,1.5C 217.583,1.21601 211.916,1.88267 206.5,3.5C 118.426,21.083 55.9257,70.7496 19,152.5C 8.69493,178.383 2.19493,205.05 -0.5,232.5C -0.5,154.833 -0.5,77.1667 -0.5,-0.5 Z"/></g>
<g><path style="opacity:1" fill="#fefefe" d="M 262.5,-0.5 C 341.5,-0.5 420.5,-0.5 499.5,-0.5C 499.5,166.167 499.5,332.833 499.5,499.5C 421.167,499.5 342.833,499.5 264.5,499.5C 268.395,498.775 272.395,498.109 276.5,497.5C 284.233,496.967 291.899,495.967 299.5,494.5C 306.459,492.677 313.459,491.01 320.5,489.5C 327.162,487.168 333.828,484.835 340.5,482.5C 355.993,476.754 370.326,468.921 383.5,459C 384.833,454.333 384.833,449.667 383.5,445C 383,444.5 382.5,444 382,443.5C 367.918,452.957 353.085,460.957 337.5,467.5C 331.619,469.125 325.953,471.125 320.5,473.5C 312.68,475.37 305.014,477.37 297.5,479.5C 289.043,480.897 280.71,482.231 272.5,483.5C 259.167,483.5 245.833,483.5 232.5,483.5C 228.802,483.448 225.135,483.114 221.5,482.5C 217.802,482.448 214.135,482.114 210.5,481.5C 129.349,465.16 70.8494,419.827 35,345.5C -1.21481,255.335 10.7852,172.335 71,96.5C 108.433,54.5237 154.933,28.1903 210.5,17.5C 215.237,17.049 219.903,16.3823 224.5,15.5C 227.167,15.5 229.833,15.5 232.5,15.5C 251.218,15.1011 269.884,15.7678 288.5,17.5C 294.342,19.0353 300.342,20.3686 306.5,21.5C 314.996,24.3292 323.663,26.9958 332.5,29.5C 344.358,34.5755 356.025,40.2422 367.5,46.5C 368.308,46.1924 368.975,45.6924 369.5,45C 368.167,40.3333 368.167,35.6667 369.5,31C 358.365,23.5988 346.365,18.0988 333.5,14.5C 325.301,11.4337 316.968,8.76702 308.5,6.5C 301.858,5.03825 295.191,3.70492 288.5,2.5C 280.92,1.01933 273.253,0.352666 265.5,0.5C 264.209,0.737305 263.209,0.403972 262.5,-0.5 Z"/></g>
<g><path style="opacity:1" fill="#535353" d="M 223.5,1.5 C 224.919,0.548855 226.585,0.215521 228.5,0.5C 234.5,0.5 240.5,0.5 246.5,0.5C 246.5,5.16667 246.5,9.83333 246.5,14.5C 241.637,14.1805 236.97,14.5139 232.5,15.5C 229.833,15.5 227.167,15.5 224.5,15.5C 224.819,10.6367 224.486,5.97005 223.5,1.5 Z"/></g>
<g><path style="opacity:1" fill="#787878" d="M 228.5,0.5 C 228.5,0.166667 228.5,-0.166667 228.5,-0.5C 239.833,-0.5 251.167,-0.5 262.5,-0.5C 263.209,0.403972 264.209,0.737305 265.5,0.5C 264.703,5.10599 264.37,9.60599 264.5,14C 258.509,14.4995 252.509,14.6662 246.5,14.5C 246.5,9.83333 246.5,5.16667 246.5,0.5C 240.5,0.5 234.5,0.5 228.5,0.5 Z"/></g>
<g><path style="opacity:1" fill="#2c2c2c" d="M 223.5,1.5 C 224.486,5.97005 224.819,10.6367 224.5,15.5C 219.903,16.3823 215.237,17.049 210.5,17.5C 210.184,12.9402 210.184,8.44017 210.5,4C 209.207,3.50999 207.873,3.34332 206.5,3.5C 211.916,1.88267 217.583,1.21601 223.5,1.5 Z"/></g>
<g><path style="opacity:1" fill="#9c9c9c" d="M 265.5,0.5 C 273.253,0.352666 280.92,1.01933 288.5,2.5C 289.813,7.57353 289.813,12.5735 288.5,17.5C 269.884,15.7678 251.218,15.1011 232.5,15.5C 236.97,14.5139 241.637,14.1805 246.5,14.5C 252.509,14.6662 258.509,14.4995 264.5,14C 264.37,9.60599 264.703,5.10599 265.5,0.5 Z"/></g>
<g><path style="opacity:1" fill="#050505" d="M 206.5,3.5 C 207.873,3.34332 209.207,3.50999 210.5,4C 210.184,8.44017 210.184,12.9402 210.5,17.5C 154.933,28.1903 108.433,54.5237 71,96.5C 10.7852,172.335 -1.21481,255.335 35,345.5C 70.8494,419.827 129.349,465.16 210.5,481.5C 210.315,485.852 210.315,490.186 210.5,494.5C 209.311,495.429 207.978,495.762 206.5,495.5C 133.652,481.514 77.1521,443.514 37,381.5C 15.1143,344.681 2.61426,305.015 -0.5,262.5C -0.5,252.5 -0.5,242.5 -0.5,232.5C 2.19493,205.05 8.69493,178.383 19,152.5C 55.9257,70.7496 118.426,21.083 206.5,3.5 Z"/></g>
<g><path style="opacity:1" fill="#b9b9b9" d="M 288.5,2.5 C 295.191,3.70492 301.858,5.03825 308.5,6.5C 308.158,11.5251 308.492,16.3585 309.5,21C 308.552,21.4828 307.552,21.6495 306.5,21.5C 300.342,20.3686 294.342,19.0353 288.5,17.5C 289.813,12.5735 289.813,7.57353 288.5,2.5 Z"/></g>
<g><path style="opacity:1" fill="#d2d2d2" d="M 308.5,6.5 C 316.968,8.76702 325.301,11.4337 333.5,14.5C 332.845,19.6565 332.512,24.6565 332.5,29.5C 323.663,26.9958 314.996,24.3292 306.5,21.5C 307.552,21.6495 308.552,21.4828 309.5,21C 308.492,16.3585 308.158,11.5251 308.5,6.5 Z"/></g>
<g><path style="opacity:1" fill="#ebebeb" d="M 333.5,14.5 C 346.365,18.0988 358.365,23.5988 369.5,31C 368.167,35.6667 368.167,40.3333 369.5,45C 368.975,45.6924 368.308,46.1924 367.5,46.5C 356.025,40.2422 344.358,34.5755 332.5,29.5C 332.512,24.6565 332.845,19.6565 333.5,14.5 Z"/></g>
<g><path style="opacity:1" fill="#070707" d="M 240.5,52.5 C 255.01,51.3687 269.01,53.5353 282.5,59C 322.14,77.9734 350.974,107.473 369,147.5C 378.48,176.332 370.98,199.499 346.5,217C 337.001,221.555 327.001,224.388 316.5,225.5C 314.193,235.396 312.526,245.396 311.5,255.5C 281.917,247.801 251.917,245.635 221.5,249C 211.306,250.339 201.306,252.505 191.5,255.5C 189.038,243.858 186.705,232.191 184.5,220.5C 152.564,225.293 132.064,212.293 123,181.5C 119.881,153.964 131.047,134.797 156.5,124C 165.167,120.667 173.833,117.333 182.5,114C 185.759,112.789 188.592,110.956 191,108.5C 193.68,98.1271 197.346,88.1271 202,78.5C 211.486,64.8423 224.32,56.1756 240.5,52.5 Z"/></g>
<g><path style="opacity:1" fill="#fdfdfd" d="M 291.5,143.5 C 292.473,143.013 293.473,142.513 294.5,142C 291.961,141.204 289.628,141.371 287.5,142.5C 269.471,145.182 253.804,152.682 240.5,165C 231.728,174.778 222.061,183.445 211.5,191C 192.286,198.04 176.786,193.206 165,176.5C 165.893,186.931 170.893,194.931 180,200.5C 181.15,203.768 181.984,207.101 182.5,210.5C 155.295,214.449 138.462,203.115 132,176.5C 131.568,155.539 141.068,141.039 160.5,133C 168.841,130.221 177.007,127.054 185,123.5C 181.954,131.214 176.454,136.714 168.5,140C 180.297,138.84 189.13,133.006 195,122.5C 199.725,111.658 204.059,100.658 208,89.5C 216.735,72.4508 230.735,64.1175 250,64.5C 260.651,64.3834 270.818,66.55 280.5,71C 313,88.1667 337.833,113 355,145.5C 361.862,160.724 362.195,176.058 356,191.5C 347.772,205.364 335.605,212.697 319.5,213.5C 319.344,209.418 319.844,205.418 321,201.5C 331.09,197.737 339.09,191.404 345,182.5C 346.301,180.598 346.968,178.598 347,176.5C 334.289,189.889 318.789,195.056 300.5,192C 289.599,187.883 278.933,183.217 268.5,178C 261.684,175.57 254.684,173.903 247.5,173C 259.914,159.743 274.581,149.909 291.5,143.5 Z"/></g>
<g><path style="opacity:1" fill="#808080" d="M 287.5,142.5 C 289.628,141.371 291.961,141.204 294.5,142C 293.473,142.513 292.473,143.013 291.5,143.5C 290.432,142.566 289.099,142.232 287.5,142.5 Z"/></g>
<g><path style="opacity:1" fill="#fcfcfc" d="M 235.5,191.5 C 247.863,191.283 260.197,191.783 272.5,193C 284.322,199.622 296.989,203.122 310.5,203.5C 308.038,216.478 305.704,229.478 303.5,242.5C 268.513,235.915 233.513,235.915 198.5,242.5C 196.488,230.241 194.155,218.074 191.5,206C 206.45,207.239 219.45,202.906 230.5,193C 232.382,192.802 234.048,192.302 235.5,191.5 Z"/></g>
<g><path style="opacity:1" fill="#080808" d="M 327.5,268.5 C 331.684,267.704 334.85,269.037 337,272.5C 338.076,284.474 338.743,296.474 339,308.5C 343.167,303 347.333,297.5 351.5,292C 354.449,291.153 356.782,291.986 358.5,294.5C 355.208,301.588 351.541,308.421 347.5,315C 350.046,319.921 353.213,324.421 357,328.5C 357.494,330.134 357.66,331.801 357.5,333.5C 354.502,334.342 351.502,334.842 348.5,335C 344.555,331.054 341.389,326.554 339,321.5C 338.501,325.486 338.334,329.486 338.5,333.5C 334.111,335.464 330.278,334.797 327,331.5C 327.233,310.51 327.4,289.51 327.5,268.5 Z"/></g>
<g><path style="opacity:1" fill="#fefefe" d="M -0.5,262.5 C 2.61426,305.015 15.1143,344.681 37,381.5C 77.1521,443.514 133.652,481.514 206.5,495.5C 210.618,496.709 214.951,497.376 219.5,497.5C 222.625,498.479 225.958,498.813 229.5,498.5C 229.5,498.833 229.5,499.167 229.5,499.5C 152.833,499.5 76.1667,499.5 -0.5,499.5C -0.5,420.5 -0.5,341.5 -0.5,262.5 Z"/></g>
<g><path style="opacity:1" fill="#080808" d="M 56.5,272.5 C 62.1959,272.025 67.6959,272.692 73,274.5C 73.7581,276.769 73.5914,278.936 72.5,281C 67.8599,281.744 63.3599,282.91 59,284.5C 58.5008,289.155 58.3342,293.821 58.5,298.5C 61.5184,298.335 64.5184,298.502 67.5,299C 70.2735,300.605 70.9402,302.772 69.5,305.5C 65.7763,307.547 61.7763,308.547 57.5,308.5C 57.8314,317.192 57.498,325.859 56.5,334.5C 52.9367,336.037 49.6034,335.704 46.5,333.5C 45.8665,329.719 45.5332,325.885 45.5,322C 46.8753,306.869 47.7087,291.702 48,276.5C 48.5,275.333 49.3333,274.5 50.5,274C 52.7078,273.809 54.7078,273.309 56.5,272.5 Z"/></g>
<g><path style="opacity:1" fill="#070707" d="M 264.5,271.5 C 276.289,271.878 283.622,277.711 286.5,289C 286.19,293.603 284.524,297.603 281.5,301C 290.673,311.304 290.673,321.637 281.5,332C 273.9,337.283 265.9,337.949 257.5,334C 256.869,332.094 256.536,330.094 256.5,328C 257.086,311.152 257.919,294.319 259,277.5C 259.683,274.321 261.516,272.321 264.5,271.5 Z"/></g>
<g><path style="opacity:1" fill="#060606" d="M 179.5,274.5 C 181.792,274.244 183.959,274.577 186,275.5C 186.499,280.823 186.666,286.156 186.5,291.5C 189.85,291.335 193.183,291.502 196.5,292C 197.24,293.785 197.907,295.618 198.5,297.5C 197.975,298.192 197.308,298.692 196.5,299C 192.848,299.499 189.182,299.665 185.5,299.5C 184.459,308.868 184.459,318.201 185.5,327.5C 186.359,328.774 187.026,328.608 187.5,327C 188.239,322.873 188.739,318.706 189,314.5C 195.779,308.14 198.612,309.64 197.5,319C 197.721,323.701 196.887,328.201 195,332.5C 191.257,336.259 186.757,337.426 181.5,336C 179.083,334.337 177.25,332.171 176,329.5C 174.605,319.566 174.105,309.566 174.5,299.5C 173.178,299.67 172.011,299.337 171,298.5C 170.503,296.19 170.337,293.857 170.5,291.5C 172.167,291.5 173.833,291.5 175.5,291.5C 175.752,286.481 176.252,281.481 177,276.5C 177.995,275.934 178.828,275.267 179.5,274.5 Z"/></g>
<g><path style="opacity:1" fill="#ebebeb" d="M 268.5,281.5 C 277.26,280.719 279.76,284.053 276,291.5C 274.255,292.956 272.422,294.289 270.5,295.5C 269.18,290.926 268.513,286.26 268.5,281.5 Z"/></g>
<g><path style="opacity:1" fill="#090909" d="M 372.5,289.5 C 382.998,287.83 387.998,292.33 387.5,303C 387.561,305.261 386.894,307.261 385.5,309C 381.018,310.796 376.351,311.63 371.5,311.5C 370.803,317.526 371.803,323.192 374.5,328.5C 376.531,324.858 378.198,321.024 379.5,317C 385.23,315.064 387.564,317.064 386.5,323C 385.794,333.029 380.461,337.029 370.5,335C 367.193,333.272 364.693,330.772 363,327.5C 360.264,315.793 361.264,304.459 366,293.5C 368.314,292.267 370.481,290.933 372.5,289.5 Z"/></g>
<g><path style="opacity:1" fill="#0a0a0a" d="M 93.5,290.5 C 96.6852,290.02 99.5185,290.686 102,292.5C 103.57,298.053 103.903,303.719 103,309.5C 101.18,312.203 98.6799,313.036 95.5,312C 94.9607,308.066 94.1274,304.233 93,300.5C 92.0853,301.328 91.4186,302.328 91,303.5C 88.2204,312.932 86.8871,322.598 87,332.5C 84.5991,333.602 82.0991,333.769 79.5,333C 78.1068,331.829 77.2735,330.329 77,328.5C 76.3117,316.453 76.8117,304.453 78.5,292.5C 83.9806,290.031 87.1473,291.698 88,297.5C 88.9668,294.379 90.8001,292.046 93.5,290.5 Z"/></g>
<g><path style="opacity:1" fill="#090909" d="M 120.5,289.5 C 125.126,288.7 128.96,290.034 132,293.5C 137.845,305.809 137.845,318.142 132,330.5C 125.744,337.554 118.91,338.22 111.5,332.5C 105.813,319.626 106.313,306.959 113,294.5C 115.479,292.686 117.979,291.019 120.5,289.5 Z"/></g>
<g><path style="opacity:1" fill="#0a0a0a" d="M 149.5,290.5 C 158.262,288.712 164.262,291.878 167.5,300C 166.731,302.401 165.064,303.901 162.5,304.5C 159.787,302.618 156.953,300.951 154,299.5C 152.72,299.613 151.887,300.28 151.5,301.5C 156.523,307.355 161.356,313.355 166,319.5C 167.246,328.5 163.413,334 154.5,336C 145.146,337.985 140.646,334.151 141,324.5C 145.13,320.43 148.297,321.263 150.5,327C 152.134,327.494 153.801,327.66 155.5,327.5C 155.662,325.473 155.495,323.473 155,321.5C 151.345,318.011 147.845,314.345 144.5,310.5C 141.854,307.628 141.021,304.295 142,300.5C 144.717,297.29 147.217,293.956 149.5,290.5 Z"/></g>
<g><path style="opacity:1" fill="#040404" d="M 409.5,290.5 C 413.287,289.814 416.454,290.814 419,293.5C 420.759,299.201 420.759,304.868 419,310.5C 416.772,312.113 414.272,312.78 411.5,312.5C 411.811,308.32 411.145,304.32 409.5,300.5C 406.924,305.128 405.424,310.128 405,315.5C 404.667,320.833 404.333,326.167 404,331.5C 403.044,332.894 401.711,333.561 400,333.5C 398.175,333.057 396.342,332.723 394.5,332.5C 393.362,319.179 393.529,305.845 395,292.5C 400.305,290.132 403.472,291.799 404.5,297.5C 405.795,294.876 407.462,292.543 409.5,290.5 Z"/></g>
<g><path style="opacity:1" fill="#070707" d="M 206.5,291.5 C 208.582,291.472 210.416,292.139 212,293.5C 214,302.833 216,312.167 218,321.5C 220.436,311.824 222.936,302.157 225.5,292.5C 227.837,291.488 230.17,291.655 232.5,293C 233.804,293.804 234.471,294.971 234.5,296.5C 230.595,316.36 225.928,336.027 220.5,355.5C 216.645,356.155 213.812,354.821 212,351.5C 212.743,345.905 213.576,340.239 214.5,334.5C 211.327,331.497 209.161,327.83 208,323.5C 205.461,313.599 203.794,303.599 203,293.5C 204.302,292.915 205.469,292.249 206.5,291.5 Z"/></g>
<g><path style="opacity:1" fill="#0a0a0a" d="M 303.5,291.5 C 311.723,290.589 317.223,293.923 320,301.5C 320.111,313.166 319.778,324.833 319,336.5C 315.915,338.84 312.915,338.507 310,335.5C 309.517,334.552 309.351,333.552 309.5,332.5C 299.597,335.387 293.597,331.887 291.5,322C 292.74,315.769 296.574,312.936 303,313.5C 304.894,313.58 306.727,313.913 308.5,314.5C 309.495,308.872 309.829,303.206 309.5,297.5C 308.178,297.33 307.011,297.663 306,298.5C 304.45,302.389 302.95,306.222 301.5,310C 299.5,310.667 297.5,310.667 295.5,310C 293.115,301.607 295.781,295.441 303.5,291.5 Z"/></g>
<g><path style="opacity:1" fill="#060606" d="M 426.5,291.5 C 429.368,291.085 431.535,292.085 433,294.5C 434.348,303.316 436.181,311.982 438.5,320.5C 441,311.165 443.5,301.832 446,292.5C 449.093,291.106 451.759,291.773 454,294.5C 451.574,315.115 447.074,335.281 440.5,355C 436.834,356.271 434.334,355.104 433,351.5C 432.775,345.551 433.608,339.718 435.5,334C 432.592,331.755 430.425,328.922 429,325.5C 426.038,314.66 424.204,303.66 423.5,292.5C 424.791,292.737 425.791,292.404 426.5,291.5 Z"/></g>
<g><path style="opacity:1" fill="#ededed" d="M 374.5,296.5 C 376.017,296.511 377.184,297.177 378,298.5C 378.495,300.473 378.662,302.473 378.5,304.5C 376.833,304.5 375.167,304.5 373.5,304.5C 373.401,301.763 373.735,299.096 374.5,296.5 Z"/></g>
<g><path style="opacity:1" fill="#e9e9e9" d="M 121.5,297.5 C 124.825,301.638 126.492,306.472 126.5,312C 126.301,318.302 124.635,324.135 121.5,329.5C 118.352,326.009 117.018,321.842 117.5,317C 117.751,310.243 119.085,303.743 121.5,297.5 Z"/></g>
<g><path style="opacity:1" fill="#f3f3f3" d="M 268.5,306.5 C 279.659,306.89 282.492,311.89 277,321.5C 273.942,324.062 270.609,325.062 267,324.5C 266.515,318.388 267.015,312.388 268.5,306.5 Z"/></g>
<g><path style="opacity:1" fill="#e2e2e2" d="M 303.5,319.5 C 306.833,318.833 308.833,320.167 309.5,323.5C 307.951,327.17 305.451,328.17 302,326.5C 301.167,323.829 301.667,321.496 303.5,319.5 Z"/></g>
<g><path style="opacity:1" fill="#1f1f1f" d="M 249.5,363.5 C 250.596,365.103 251.93,366.603 253.5,368C 313.169,368.428 372.836,369.095 432.5,370C 373.171,371.043 313.838,371.71 254.5,372C 252.448,372.93 250.948,374.43 250,376.5C 248.5,375 247,373.5 245.5,372C 189.155,371.91 132.822,371.244 76.5,370C 133.16,368.885 189.827,368.219 246.5,368C 247.386,366.385 248.386,364.885 249.5,363.5 Z"/></g>
<g><path style="opacity:1" fill="#f0f0f0" d="M 340.5,482.5 C 339.167,477.5 339.167,472.5 340.5,467.5C 339.5,467.5 338.5,467.5 337.5,467.5C 353.085,460.957 367.918,452.957 382,443.5C 382.5,444 383,444.5 383.5,445C 384.833,449.667 384.833,454.333 383.5,459C 370.326,468.921 355.993,476.754 340.5,482.5 Z"/></g>
<g><path style="opacity:1" fill="#d8d8d8" d="M 337.5,467.5 C 338.5,467.5 339.5,467.5 340.5,467.5C 339.167,472.5 339.167,477.5 340.5,482.5C 333.828,484.835 327.162,487.168 320.5,489.5C 320.5,484.167 320.5,478.833 320.5,473.5C 325.953,471.125 331.619,469.125 337.5,467.5 Z"/></g>
<g><path style="opacity:1" fill="#c0c0c0" d="M 320.5,473.5 C 320.5,478.833 320.5,484.167 320.5,489.5C 313.459,491.01 306.459,492.677 299.5,494.5C 298.835,489.832 298.835,485.332 299.5,481C 298.956,480.283 298.289,479.783 297.5,479.5C 305.014,477.37 312.68,475.37 320.5,473.5 Z"/></g>
<g><path style="opacity:1" fill="#2b2b2b" d="M 210.5,481.5 C 214.135,482.114 217.802,482.448 221.5,482.5C 222.209,483.404 223.209,483.737 224.5,483.5C 224.5,488.167 224.5,492.833 224.5,497.5C 222.833,497.5 221.167,497.5 219.5,497.5C 214.951,497.376 210.618,496.709 206.5,495.5C 207.978,495.762 209.311,495.429 210.5,494.5C 210.315,490.186 210.315,485.852 210.5,481.5 Z"/></g>
<g><path style="opacity:1" fill="#a5a5a5" d="M 297.5,479.5 C 298.289,479.783 298.956,480.283 299.5,481C 298.835,485.332 298.835,489.832 299.5,494.5C 291.899,495.967 284.233,496.967 276.5,497.5C 276.5,492.833 276.5,488.167 276.5,483.5C 275.167,483.5 273.833,483.5 272.5,483.5C 280.71,482.231 289.043,480.897 297.5,479.5 Z"/></g>
<g><path style="opacity:1" fill="#8f8f8f" d="M 232.5,483.5 C 245.833,483.5 259.167,483.5 272.5,483.5C 273.833,483.5 275.167,483.5 276.5,483.5C 276.5,488.167 276.5,492.833 276.5,497.5C 272.395,498.109 268.395,498.775 264.5,499.5C 262.167,499.5 259.833,499.5 257.5,499.5C 258.209,498.596 259.209,498.263 260.5,498.5C 260.5,493.833 260.5,489.167 260.5,484.5C 254.833,484.5 249.167,484.5 243.5,484.5C 239.629,484.815 235.962,484.482 232.5,483.5 Z"/></g>
<g><path style="opacity:1" fill="#4f4f4f" d="M 221.5,482.5 C 225.135,483.114 228.802,483.448 232.5,483.5C 235.962,484.482 239.629,484.815 243.5,484.5C 243.5,489.167 243.5,493.833 243.5,498.5C 238.833,498.5 234.167,498.5 229.5,498.5C 225.958,498.813 222.625,498.479 219.5,497.5C 221.167,497.5 222.833,497.5 224.5,497.5C 224.5,492.833 224.5,488.167 224.5,483.5C 223.209,483.737 222.209,483.404 221.5,482.5 Z"/></g>
<g><path style="opacity:1" fill="#6f6f6f" d="M 243.5,484.5 C 249.167,484.5 254.833,484.5 260.5,484.5C 260.5,489.167 260.5,493.833 260.5,498.5C 259.209,498.263 258.209,498.596 257.5,499.5C 248.167,499.5 238.833,499.5 229.5,499.5C 229.5,499.167 229.5,498.833 229.5,498.5C 234.167,498.5 238.833,498.5 243.5,498.5C 243.5,493.833 243.5,489.167 243.5,484.5 Z"/></g>
</svg>
